<?xml version="1.0" encoding="UTF-8" standalone="no"?>
<!-- Created with Inkscape (http://www.inkscape.org/) -->

<svg
   width="608.88074mm"
   height="81.951401mm"
   viewBox="0 0 608.88074 81.951401"
   version="1.1"
   id="svg5"
   inkscape:version="1.2.2 (732a01da63, 2022-12-09)"
   sodipodi:docname="fill_image.svg"
   xmlns:inkscape="http://www.inkscape.org/namespaces/inkscape"
   xmlns:sodipodi="http://sodipodi.sourceforge.net/DTD/sodipodi-0.dtd"
   xmlns="http://www.w3.org/2000/svg"
   xmlns:svg="http://www.w3.org/2000/svg">
  <sodipodi:namedview
     id="namedview7"
     pagecolor="#ffffff"
     bordercolor="#000000"
     borderopacity="0.25"
     inkscape:showpageshadow="2"
     inkscape:pageopacity="0.0"
     inkscape:pagecheckerboard="0"
     inkscape:deskcolor="#d1d1d1"
     inkscape:document-units="mm"
     showgrid="false"
     inkscape:zoom="0.2973261"
     inkscape:cx="1146.8889"
     inkscape:cy="242.15836"
     inkscape:window-width="1680"
     inkscape:window-height="979"
     inkscape:window-x="-8"
     inkscape:window-y="-8"
     inkscape:window-maximized="1"
     inkscape:current-layer="layer1" />
  <defs
     id="defs2">
    <inkscape:path-effect
       effect="tiling"
       id="path-effect399"
       is_visible="true"
       lpeversion="1"
       unit="px"
       seed="1;1"
       lpesatellites=""
       num_rows="1"
       num_cols="10"
       gapx="-47"
       gapy="0"
       offset="0"
       offset_type="false"
       scale="0"
       rotate="0"
       mirrorrowsx="false"
       mirrorrowsy="false"
       mirrorcolsx="false"
       mirrorcolsy="false"
       mirrortrans="false"
       shrink_interp="false"
       split_items="false"
       link_styles="false"
       interpolate_scalex="false"
       interpolate_scaley="true"
       interpolate_rotatex="false"
       interpolate_rotatey="true"
       random_scale="false"
       random_rotate="false"
       random_gap_y="false"
       random_gap_x="false"
       transformorigin="" />
    <inkscape:path-effect
       effect="tiling"
       id="path-effect399-7"
       is_visible="true"
       lpeversion="1"
       unit="px"
       seed="1;1"
       lpesatellites=""
       num_rows="1"
       num_cols="9"
       gapx="-110"
       gapy="0"
       offset="0"
       offset_type="false"
       scale="0"
       rotate="0"
       mirrorrowsx="false"
       mirrorrowsy="false"
       mirrorcolsx="false"
       mirrorcolsy="false"
       mirrortrans="false"
       shrink_interp="false"
       split_items="false"
       link_styles="false"
       interpolate_scalex="false"
       interpolate_scaley="true"
       interpolate_rotatex="false"
       interpolate_rotatey="true"
       random_scale="false"
       random_rotate="false"
       random_gap_y="false"
       random_gap_x="false"
       transformorigin="" />
  </defs>
  <g
     inkscape:label="Capa 1"
     inkscape:groupmode="layer"
     id="layer1"
     transform="translate(-16.462704,-94.314439)">
    <path
       style="fill:#758a90;fill-opacity:1;stroke-width:1;stroke-opacity:0.99"
       d="m 16.462704,95.21672 c 34.549646,0 32.858133,-5.303951 36.448049,9.8074 8.588813,36.15365 4.443305,72.06118 35.6319,70.72637 -39.97961,0 -41.881565,4.65196 -48.502875,-13.99751 C 32.140816,139.50489 31.85302,97.131427 16.462704,95.21672 Z m 59.644532,0 c 34.549644,0 32.858134,-5.303951 36.448054,9.8074 8.58881,36.15365 4.4433,72.06118 35.6319,70.72637 -39.97961,0 -41.88157,4.65196 -48.50288,-13.99751 C 91.785348,139.50489 91.497552,97.131427 76.107236,95.21672 Z m 59.644534,0 c 34.54964,0 32.85813,-5.303951 36.44805,9.8074 8.58881,36.15365 4.4433,72.06118 35.6319,70.72637 -39.97961,0 -41.88157,4.65196 -48.50288,-13.99751 -7.89896,-22.24809 -8.18676,-64.621553 -23.57707,-66.53626 z m 59.64453,0 c 34.54965,0 32.85813,-5.303951 36.44805,9.8074 8.58881,36.15365 4.44331,72.06118 35.6319,70.72637 -39.97961,0 -41.88156,4.65196 -48.50287,-13.99751 -7.89897,-22.24809 -8.18676,-64.621553 -23.57708,-66.53626 z m 59.64453,0 c 34.54965,0 32.85814,-5.303951 36.44805,9.8074 8.58882,36.15365 4.44331,72.06118 35.6319,70.72637 -39.97961,0 -41.88156,4.65196 -48.50287,-13.99751 -7.89896,-22.24809 -8.18676,-64.621553 -23.57708,-66.53626 z m 59.64454,0 c 34.54964,0 32.85813,-5.303951 36.44804,9.8074 8.58882,36.15365 4.44331,72.06118 35.6319,70.72637 -39.97961,0 -41.88156,4.65196 -48.50287,-13.99751 -7.89896,-22.24809 -8.18676,-64.621553 -23.57707,-66.53626 z m 59.64453,0 c 34.54964,0 32.85813,-5.303951 36.44805,9.8074 8.58881,36.15365 4.4433,72.06118 35.6319,70.72637 -39.97961,0 -41.88157,4.65196 -48.50288,-13.99751 -7.89896,-22.24809 -8.18676,-64.621553 -23.57707,-66.53626 z m 59.64453,0 c 34.54965,0 32.85813,-5.303951 36.44805,9.8074 8.58881,36.15365 4.4433,72.06118 35.6319,70.72637 -39.97961,0 -41.88157,4.65196 -48.50288,-13.99751 -7.89896,-22.24809 -8.18675,-64.621553 -23.57707,-66.53626 z m 59.64453,0 c 34.54965,0 32.85814,-5.303951 36.44805,9.8074 8.58881,36.15365 4.44331,72.06118 35.6319,70.72637 -39.97961,0 -41.88156,4.65196 -48.50287,-13.99751 -7.89897,-22.24809 -8.18676,-64.621553 -23.57708,-66.53626 z m 59.64454,0 c 34.54964,0 32.85813,-5.303951 36.44804,9.8074 8.58882,36.15365 4.44331,72.06118 35.6319,70.72637 -39.97961,0 -41.88156,4.65196 -48.50287,-13.99751 -7.89896,-22.24809 -8.18676,-64.621553 -23.57707,-66.53626 z"
       id="path301"
       sodipodi:nodetypes="cscsc"
       inkscape:path-effect="#path-effect399"
       inkscape:original-d="m 16.462704,95.21672 c 34.549646,0 32.858133,-5.303951 36.448049,9.8074 8.588813,36.15365 4.443305,72.06118 35.6319,70.72637 -39.97961,0 -41.881565,4.65196 -48.502875,-13.99751 C 32.140816,139.50489 31.85302,97.131427 16.462704,95.21672 Z"
       class="UnoptimicedTransforms" />
    <path
       style="fill:#9baaa2;fill-opacity:1;stroke-width:1;stroke-opacity:0.99"
       d="m 0,93.436968 c 34.549646,0 49.320837,-3.524199 52.910753,11.587152 8.588813,36.15365 4.443305,72.06118 35.6319,70.72637 -39.97961,0 -58.789207,4.20702 -65.410517,-14.44245 C 15.233174,139.05995 15.390316,95.351675 0,93.436968 Z m 59.438486,0 c 34.549646,0 49.320834,-3.524199 52.910754,11.587152 8.58881,36.15365 4.4433,72.06118 35.6319,70.72637 -39.97961,0 -58.789208,4.20702 -65.410518,-14.44245 C 74.67166,139.05995 74.828802,95.351675 59.438486,93.436968 Z m 59.438484,0 c 34.54965,0 49.32084,-3.524199 52.91076,11.587152 8.58881,36.15365 4.4433,72.06118 35.6319,70.72637 -39.97961,0 -58.78921,4.20702 -65.41052,-14.44245 -7.89896,-22.24809 -7.74182,-65.956365 -23.13214,-67.871072 z m 59.43849,0 c 34.54965,0 49.32084,-3.524199 52.91075,11.587152 8.58882,36.15365 4.44331,72.06118 35.6319,70.72637 -39.97961,0 -58.7892,4.20702 -65.41051,-14.44245 -7.89897,-22.24809 -7.74182,-65.956365 -23.13214,-67.871072 z m 59.43849,0 c 34.54964,0 49.32083,-3.524199 52.91075,11.587152 8.58881,36.15365 4.4433,72.06118 35.6319,70.72637 -39.97961,0 -58.78921,4.20702 -65.41052,-14.44245 -7.89896,-22.24809 -7.74182,-65.956365 -23.13213,-67.871072 z m 59.43848,0 c 34.54965,0 49.32084,-3.524199 52.91075,11.587152 8.58882,36.15365 4.44331,72.06118 35.6319,70.72637 -39.97961,0 -58.7892,4.20702 -65.41051,-14.44245 -7.89896,-22.24809 -7.74182,-65.956365 -23.13214,-67.871072 z m 59.43849,0 c 34.54964,0 49.32084,-3.524199 52.91075,11.587152 8.58881,36.15365 4.44331,72.06118 35.6319,70.72637 -39.97961,0 -58.78921,4.20702 -65.41052,-14.44245 -7.89896,-22.24809 -7.74182,-65.956365 -23.13213,-67.871072 z m 59.43848,0 c 34.54965,0 49.32084,-3.524199 52.91076,11.587152 8.58881,36.15365 4.4433,72.06118 35.6319,70.72637 -39.97961,0 -58.78921,4.20702 -65.41052,-14.44245 -7.89896,-22.24809 -7.74182,-65.956365 -23.13214,-67.871072 z m 59.43849,0 c 34.54965,0 49.32084,-3.524199 52.91075,11.587152 8.58882,36.15365 4.44331,72.06118 35.6319,70.72637 -39.97961,0 -58.7892,4.20702 -65.41051,-14.44245 -7.89897,-22.24809 -7.74182,-65.956365 -23.13214,-67.871072 z"
       id="path301-9"
       sodipodi:nodetypes="cscsc"
       inkscape:path-effect="#path-effect399-7"
       inkscape:original-d="m 0,93.436968 c 34.549646,0 49.320837,-3.524199 52.910753,11.587152 8.588813,36.15365 4.443305,72.06118 35.6319,70.72637 -39.97961,0 -58.789207,4.20702 -65.410517,-14.44245 C 15.233174,139.05995 15.390316,95.351675 0,93.436968 Z"
       class="UnoptimicedTransforms"
       transform="translate(39.821947,0.64235749)" />
  </g>
</svg>
